# xmcd CD database file
#
# Track frame offsets:
#	150
#	16210
#	31767
#	49600
#	63914
#	82868
#	99732
#	111798
#	129770
#	143906
#	161827
#	178014
#
# Disc length: 2584 seconds
#
# Revision: 1
# Processed by: cddbd v1.5.1PL0 Copyright (c) Steve Scherf et al.
# Submitted via: CDex 1.51
#
DISCID=8f0a160c
DTITLE=Tanya Tucker - Tanya
DYEAR=2002
DGENRE=Country
TTITLE0=Old Weakness (Coming On Strong)
TTITLE1=Oh What A Love
TTITLE2=Over My Shoulder
TTITLE3=A Memory Like I'm Gonna Be
TTITLE4=We Had It All
TTITLE5=I Can Live Without You (But Not Very Long)
TTITLE6=I Still Hear Your Voice
TTITLE7=Borrowed Wings
TTITLE8=1010 Whippoorwill Lane
TTITLE9=Should'a Thought About That
TTITLE10=I Can Do That
TTITLE11=Waitin' For The Sun
EXTD=YEAR: 2002
EXTT0=
EXTT1=
EXTT2=
EXTT3=
EXTT4=
EXTT5=
EXTT6=
EXTT7=
EXTT8=
EXTT9=
EXTT10=
EXTT11=
PLAYORDER=
